<?xml version="1.0" encoding="utf-8"?>
<!-- Generator: Adobe Illustrator 24.0.1, SVG Export Plug-In . SVG Version: 6.00 Build 0)  -->
<svg version="1.1" id="Layer_1" xmlns="http://www.w3.org/2000/svg" xmlns:xlink="http://www.w3.org/1999/xlink" x="0px" y="0px"
	 viewBox="0 0 800 300" style="enable-background:new 0 0 800 300;" xml:space="preserve">
<style type="text/css">
	.st0{fill:#FFFFFF;}
</style>
<g>
	<path class="st0" d="M43.6,169.3c10.5,0,19-8.5,19-19c0-10.5-8.5-18.9-19-18.9c-10.5,0-19,8.4-19,18.9
		C24.6,160.8,33.1,169.3,43.6,169.3"/>
	<path class="st0" d="M43.6,273.5c10.5,0,19-8.5,19-19c0-10.5-8.5-19-19-19c-10.5,0-19,8.5-19,19C24.6,265.1,33.1,273.5,43.6,273.5"
		/>
	<path class="st0" d="M147.8,169.3c10.5,0,19-8.5,19-19c0-10.5-8.5-18.9-19-18.9c-10.5,0-19,8.4-19,18.9
		C128.8,160.8,137.3,169.3,147.8,169.3"/>
	<path class="st0" d="M147.8,273.5c10.5,0,19-8.5,19-19c0-10.5-8.5-19-19-19c-10.5,0-19,8.5-19,19
		C128.8,265.1,137.3,273.5,147.8,273.5"/>
	<path class="st0" d="M252.1,169.3c10.5,0,19-8.5,19-19c0-10.5-8.5-18.9-19-18.9c-10.5,0-18.9,8.4-18.9,18.9
		C233.1,160.8,241.6,169.3,252.1,169.3"/>
	<path class="st0" d="M43.6,65c10.5,0,19-8.5,19-19c0-10.5-8.5-19-19-19c-10.5,0-19,8.5-19,19C24.6,56.5,33.1,65,43.6,65"/>
	<path class="st0" d="M147.8,65c10.5,0,19-8.5,19-19c0-10.5-8.5-19-19-19c-10.5,0-19,8.5-19,19C128.8,56.5,137.3,65,147.8,65"/>
	<path class="st0" d="M252.1,65c10.5,0,19-8.5,19-19c0-10.5-8.5-19-19-19c-10.5,0-18.9,8.5-18.9,19C233.1,56.5,241.6,65,252.1,65"/>
	<path class="st0" d="M252.1,273.5c10.5,0,19-8.5,19-19c0-10.5-8.5-19-19-19c-10.5,0-18.9,8.5-18.9,19
		C233.1,265.1,241.6,273.5,252.1,273.5"/>
	<path class="st0" d="M356.3,169.3c10.5,0,19-8.5,19-19c0-10.5-8.5-18.9-19-18.9c-10.5,0-19,8.4-19,18.9
		C337.4,160.8,345.9,169.3,356.3,169.3"/>
	<path class="st0" d="M356.3,273.5c10.5,0,19-8.5,19-19c0-10.5-8.5-19-19-19c-10.5,0-19,8.5-19,19
		C337.4,265.1,345.9,273.5,356.3,273.5"/>
	<path class="st0" d="M356.3,65c10.5,0,19-8.5,19-19c0-10.4-8.5-19-19-19c-10.5,0-19,8.5-19,19C337.4,56.5,345.9,65,356.3,65"/>
	<path class="st0" d="M740.8,272.6c1,0,1.4-0.4,1.4-1.4v-87c0-0.7,0.3-1.1,1-1.1h24.4c1,0,1.4-0.6,1.4-1.5v-8.8c0-1-0.4-1.4-1.4-1.4
		h-64.8c-1,0-1.4,0.4-1.4,1.4v8.8c0,1,0.4,1.5,1.4,1.5H727c0.7,0,1.1,0.4,1.1,1.1v87c0,1,0.4,1.4,1.3,1.4H740.8z M641.7,171.3
		c-1,0-1.4,0.4-1.4,1.4v98.5c0,1,0.4,1.4,1.4,1.4h11.4c0.8,0,1.3-0.4,1.3-1.4v-98.5c0-1-0.4-1.4-1.3-1.4H641.7z M573,171.3
		c-1,0-1.4,0.4-1.4,1.4v98.5c0,1,0.4,1.4,1.4,1.4h11.4c0.8,0,1.3-0.4,1.3-1.4v-98.5c0-1-0.4-1.4-1.3-1.4H573z M483.9,184.2
		c0-0.7,0.4-1.1,1.1-1.1h39.3c1,0,1.5-0.6,1.5-1.5v-8.8c0-1-0.6-1.4-1.5-1.4h-53c-1,0-1.4,0.4-1.4,1.4v98.5c0,1,0.4,1.4,1.4,1.4
		h11.4c0.8,0,1.3-0.4,1.3-1.4v-43.3h31.4c1,0,1.5-0.4,1.5-1.4v-9c0-1-0.6-1.4-1.5-1.4h-31.4V184.2z"/>
	<path class="st0" d="M774.6,30.4c0-1.3-0.6-1.8-1.5-1.8h-18.9c-1.1,0-1.7,0.6-1.7,1.8V98c0,10-5.5,14.9-16.5,14.9
		c-11,0-16.4-4.9-16.4-14.9V30.4c0-1.3-0.6-1.8-1.5-1.8h-18.8c-1.3,0-1.8,0.6-1.8,1.8v68.2c0,19.8,11.1,32.3,38.6,32.3
		c27.6,0,38.7-12.5,38.7-32.3V30.4z M622,129.8c1.3,0,1.8-0.6,1.8-1.8V47.6c0-0.7,0.3-1.1,1-1.1h23.8c1.1,0,1.7-0.6,1.7-1.8V30.4
		c0-1.3-0.6-1.8-1.7-1.8h-71.5c-1.3,0-1.8,0.6-1.8,1.8v14.3c0,1.3,0.6,1.8,1.8,1.8h23.4c0.7,0,1.1,0.4,1.1,1.1V128
		c0,1.3,0.6,1.8,1.5,1.8H622z M466.7,124.9c9.5,4.9,18.7,5.9,30.3,5.9c21.6,0,35.5-10.8,35.5-30.4c0-14.3-6.7-23-24.3-30.4
		c-15-6-17.1-8.7-17.1-14.3c0-5.7,3.9-9.7,12.9-9.7c6.6,0,12.2,1.1,17.7,3.4c1.3,0.6,2.1,0,2.5-1l6.6-12.9c0.4-1,0.4-2-0.8-2.4
		c-10.2-4.5-16.1-5.5-29.7-5.5c-20.9,0-33.2,12.2-33.2,28.6c0,15,7.6,24.3,25.1,31.7c13.6,6,16.4,9,16.4,14.7c0,6.2-5,9.8-13.5,9.8
		c-9.7,0-14.6-2-20.5-4.6c-1.1-0.4-2,0-2.4,1l-6.3,14.4C465.5,123.8,465.8,124.4,466.7,124.9"/>
</g>
</svg>
